<svg xmlns="http://www.w3.org/2000/svg" fill="none" viewBox="0 0 4539 800" height="800" width="4539">
<path fill="black" d="M1221.4 384H1428.4V609H1350.4L1346.8 548.4C1331.2 574.4 1311.6 593 1288 604.2C1264.8 615.4 1229.6 621 1182.4 621C1146.8 621 1115 617.2 1087 609.6C1059 602.4 1033.8 586.8 1011.4 562.8C974.6 524.4 956.2 471.2 956.2 403.2C956.2 332 977.6 276 1020.4 235.2C1060.4 196 1119.6 176.4 1198 176.4C1263.6 176.4 1316.2 187.8 1355.8 210.6C1398.2 237.8 1420.8 276.4 1423.6 326.4H1308.4C1306.4 304.4 1295.2 287.4 1274.8 275.4C1258 265.4 1235 260.4 1205.8 260.4C1164.6 260.4 1133.4 271 1112.2 292.2C1088.2 317.4 1076.2 353.8 1076.2 401.4C1076.2 447.8 1088.6 482.6 1113.4 505.8C1134.6 526.6 1165.4 537 1205.8 537C1241.4 537 1268.2 529.6 1286.2 514.8C1303.8 500 1314.6 479.2 1318.6 452.4H1221.4V384ZM1622.53 273V375.6H1739.53C1767.13 375.6 1786.53 370 1797.73 358.8C1806.93 349.6 1811.53 337.6 1811.53 322.8C1811.53 304.8 1804.73 291.2 1791.13 282C1781.53 276 1763.93 273 1738.33 273H1622.53ZM1512.13 609V189H1760.53C1826.13 189 1871.53 201.6 1896.73 226.8C1915.93 246 1925.53 272.6 1925.53 306.6C1925.53 337.8 1916.33 362.6 1897.93 381C1883.93 395 1865.93 404.8 1843.93 410.4V412.8C1864.73 416.4 1881.13 424.8 1893.13 438C1895.53 440.4 1897.73 443 1899.73 445.8C1901.73 448.6 1903.33 451.2 1904.53 453.6C1905.73 456 1906.73 458.8 1907.53 462C1908.73 465.2 1909.53 467.8 1909.93 469.8C1910.73 471.4 1911.33 474 1911.73 477.6C1912.53 481.2 1912.93 483.8 1912.93 485.4C1912.93 487 1913.13 489.8 1913.53 493.8C1913.93 497.8 1914.13 500.4 1914.13 501.6L1917.13 549C1919.13 573.8 1924.93 593.8 1934.53 609H1817.53C1813.13 603 1809.73 597 1807.33 591C1805.33 584.6 1803.93 579.6 1803.13 576C1802.73 572 1802.13 565.2 1801.33 555.6L1799.53 520.8C1797.93 496.8 1791.33 479.8 1779.73 469.8C1768.13 459.8 1750.13 454.8 1725.73 454.8H1622.53V609H1512.13ZM2133.31 451.8H2261.71L2196.91 294.6L2133.31 451.8ZM2106.31 523.8L2069.71 609H1954.51L2142.91 189H2251.51L2439.91 609H2324.71L2288.11 523.8H2106.31ZM2589.33 273V525H2652.93C2702.93 525 2739.53 515.4 2762.73 496.2C2789.13 474.2 2802.33 441.6 2802.33 398.4C2802.33 355.2 2789.93 323 2765.13 301.8C2742.73 282.6 2707.53 273 2659.53 273H2589.33ZM2478.93 189H2673.93C2759.53 189 2822.53 208.6 2862.93 247.8C2900.13 283.8 2918.73 333.6 2918.73 397.2C2918.73 462.8 2900.13 514.2 2862.93 551.4C2845.73 568.6 2823.73 581.8 2796.93 591C2770.53 600.2 2748.13 605.6 2729.73 607.2C2711.73 608.4 2689.73 609 2663.73 609H2478.93V189ZM2990.45 189H3100.85V609H2990.45V189ZM3303.59 355.8H3533.99V435H3303.59V525H3582.59V609H3193.19V189H3575.99V273H3303.59V355.8ZM4071.62 189V609H3964.22L3752.42 327V609H3642.02V189H3750.02L3961.22 471V189H4071.62ZM4273.29 273H4126.89V189H4530.09V273H4383.69V609H4273.29V273Z"></path>
<g clip-path="url(#clip0_868_12)">
<mask fill="black" height="628" width="628" y="86" x="86" maskUnits="userSpaceOnUse" id="path-2-outside-1_868_12">
<rect height="628" width="628" y="86" x="86" fill="white"></rect>
<path d="M400 700C565.685 700 700 565.685 700 400C700 391.581 699.653 383.243 698.973 375H688.667H648.766H400V425H648.766C636.223 551.333 529.634 650 400 650C261.929 650 150 538.071 150 400C150 261.929 261.929 150 400 150C511.941 150 606.698 223.572 638.555 325H690.549C657.245 195.608 539.788 100 400 100C234.315 100 100 234.315 100 400C100 565.685 234.315 700 400 700Z" clip-rule="evenodd" fill-rule="evenodd"></path>
</mask>
<path fill="black" d="M400 700C565.685 700 700 565.685 700 400C700 391.581 699.653 383.243 698.973 375H688.667H648.766H400V425H648.766C636.223 551.333 529.634 650 400 650C261.929 650 150 538.071 150 400C150 261.929 261.929 150 400 150C511.941 150 606.698 223.572 638.555 325H690.549C657.245 195.608 539.788 100 400 100C234.315 100 100 234.315 100 400C100 565.685 234.315 700 400 700Z" clip-rule="evenodd" fill-rule="evenodd"></path>
<path mask="url(#path-2-outside-1_868_12)" fill="black" d="M698.973 375L712.926 373.849L711.866 361H698.973V375ZM400 375V361H386V375H400ZM400 425H386V439H400V425ZM648.766 425L662.697 426.383L664.224 411H648.766V425ZM638.555 325L625.198 329.195L628.278 339H638.555V325ZM690.549 325V339H708.608L704.107 321.51L690.549 325ZM686 400C686 557.953 557.953 686 400 686V714C573.417 714 714 573.417 714 400H686ZM685.021 376.151C685.669 384.012 686 391.966 686 400H714C714 391.197 713.637 382.475 712.926 373.849L685.021 376.151ZM688.667 389H698.973V361H688.667V389ZM688.667 361H648.766V389H688.667V361ZM648.766 361H400V389H648.766V361ZM386 375V425H414V375H386ZM400 439H648.766V411H400V439ZM400 664C536.902 664 649.45 559.806 662.697 426.383L634.834 423.617C622.995 542.86 522.366 636 400 636V664ZM136 400C136 545.803 254.197 664 400 664V636C269.661 636 164 530.339 164 400H136ZM400 136C254.197 136 136 254.197 136 400H164C164 269.661 269.661 164 400 164V136ZM651.912 320.805C618.275 213.71 518.231 136 400 136V164C505.651 164 595.122 233.435 625.198 329.195L651.912 320.805ZM690.549 311H638.555V339H690.549V311ZM400 114C533.245 114 645.241 205.133 676.991 328.49L704.107 321.51C669.25 186.083 546.331 86 400 86V114ZM114 400C114 242.047 242.047 114 400 114V86C226.583 86 86 226.583 86 400H114ZM400 686C242.047 686 114 557.953 114 400H86C86 573.417 226.583 714 400 714V686Z"></path>
</g>
<defs>
<clipPath id="clip0_868_12">
<rect fill="white" height="800" width="800"></rect>
</clipPath>
</defs>
</svg>
